<svg width="16" height="16" viewBox="0 0 16 16" fill="none" xmlns="http://www.w3.org/2000/svg">
<path d="M6.99999 13.3333C6.99999 13.5985 7.10535 13.8529 7.29288 14.0404C7.48042 14.228 7.73477 14.3333 7.99999 14.3333C8.26521 14.3333 8.51956 14.228 8.7071 14.0404C8.89463 13.8529 8.99999 13.5985 8.99999 13.3333V8.99999H13.3333C13.5985 8.99999 13.8529 8.89463 14.0404 8.7071C14.228 8.51956 14.3333 8.26521 14.3333 7.99999C14.3333 7.73477 14.228 7.48042 14.0404 7.29288C13.8529 7.10535 13.5985 6.99999 13.3333 6.99999H8.99999V2.66666C8.99999 2.40144 8.89463 2.14709 8.7071 1.95955C8.51956 1.77201 8.26521 1.66666 7.99999 1.66666C7.73477 1.66666 7.48042 1.77201 7.29288 1.95955C7.10535 2.14709 6.99999 2.40144 6.99999 2.66666V6.99999H2.66666C2.40144 6.99999 2.14709 7.10535 1.95955 7.29288C1.77201 7.48042 1.66666 7.73477 1.66666 7.99999C1.66666 8.26521 1.77201 8.51956 1.95955 8.7071C2.14709 8.89463 2.40144 8.99999 2.66666 8.99999H6.99999V13.3333Z" fill="#47C16B" fill-opacity="0.9"/>
</svg>
