<svg width="32" height="32" viewBox="0 0 32 32" fill="none" xmlns="http://www.w3.org/2000/svg">
<path d="M29.3333 7.99999C29.3333 6.53333 28.1333 5.33333 26.6667 5.33333H5.33333C3.86667 5.33333 2.66667 6.53333 2.66667 7.99999V24C2.66667 25.4667 3.86667 26.6667 5.33333 26.6667H26.6667C28.1333 26.6667 29.3333 25.4667 29.3333 24V7.99999ZM26.6667 7.99999L16 14.6667L5.33333 7.99999H26.6667ZM26.6667 24H5.33333V10.6667L16 17.3333L26.6667 10.6667V24Z" fill="#D2D1E3" fill-opacity="0.9"/>
<path d="M26.9317 8.42399L28.4101 7.49999H26.6667H5.33333H3.58993L5.06833 8.42399L15.735 15.0907L16 15.2563L16.265 15.0907L26.9317 8.42399ZM26.6667 24.5H27.1667V24V10.6667V9.76454L26.4017 10.2427L16 16.7437L5.59833 10.2427L4.83333 9.76454V10.6667V24V24.5H5.33333H26.6667ZM26.6667 5.83333C27.8572 5.83333 28.8333 6.80947 28.8333 7.99999V24C28.8333 25.1905 27.8572 26.1667 26.6667 26.1667H5.33333C4.14281 26.1667 3.16667 25.1905 3.16667 24V7.99999C3.16667 6.80947 4.14281 5.83333 5.33333 5.83333H26.6667Z" stroke="#D2D1E3" stroke-opacity="0.9"/>
</svg>
