<svg width="32" height="32" viewBox="0 0 32 32" fill="none" xmlns="http://www.w3.org/2000/svg">
<path d="M7.33334 26H12.3333V18.6667C12.3333 18.3833 12.4292 18.1458 12.621 17.954C12.8126 17.7624 13.05 17.6667 13.3333 17.6667H18.6667C18.95 17.6667 19.1876 17.7624 19.3793 17.954C19.5709 18.1458 19.6667 18.3833 19.6667 18.6667V26H24.6667V13L16 6.5L7.33334 13V26ZM5.33334 26V13C5.33334 12.6833 5.40423 12.3833 5.54601 12.1C5.68757 11.8167 5.88334 11.5833 6.13334 11.4L14.8 4.9C15.1485 4.63333 15.5467 4.5 15.9947 4.5C16.4427 4.5 16.8445 4.63333 17.2 4.9L25.8667 11.4C26.1167 11.5833 26.3126 11.8167 26.4543 12.1C26.5959 12.3833 26.6667 12.6833 26.6667 13V26C26.6667 26.55 26.4709 27.0208 26.0793 27.4123C25.6876 27.8041 25.2167 28 24.6667 28H18.6667C18.3833 28 18.1459 27.9041 17.9543 27.7123C17.7626 27.5208 17.6667 27.2833 17.6667 27V19.6667H14.3333V27C14.3333 27.2833 14.2376 27.5208 14.046 27.7123C13.8542 27.9041 13.6167 28 13.3333 28H7.33334C6.78334 28 6.31257 27.8041 5.92101 27.4123C5.52923 27.0208 5.33334 26.55 5.33334 26Z" fill="#47C16B" fill-opacity="0.9"/>
</svg>
