<svg width="32" height="32" viewBox="0 0 32 32" fill="none" xmlns="http://www.w3.org/2000/svg">
<path d="M8.00001 25.3333H12V18.6667C12 18.2889 12.128 17.9724 12.384 17.7173C12.64 17.4622 12.9565 17.3342 13.3333 17.3333H18.6667C19.0445 17.3333 19.3613 17.4613 19.6173 17.7173C19.8733 17.9733 20.0009 18.2898 20 18.6667V25.3333H24V13.3333L16 7.33332L8.00001 13.3333V25.3333ZM5.33334 25.3333V13.3333C5.33334 12.9111 5.42801 12.5111 5.61734 12.1333C5.80668 11.7555 6.06757 11.4444 6.40001 11.2L14.4 5.19999C14.8667 4.84443 15.4 4.66666 16 4.66666C16.6 4.66666 17.1333 4.84443 17.6 5.19999L25.6 11.2C25.9333 11.4444 26.1947 11.7555 26.384 12.1333C26.5733 12.5111 26.6676 12.9111 26.6667 13.3333V25.3333C26.6667 26.0667 26.4053 26.6947 25.8827 27.2173C25.36 27.74 24.7325 28.0009 24 28H18.6667C18.2889 28 17.9725 27.872 17.7173 27.616C17.4622 27.36 17.3342 27.0435 17.3333 26.6667V20H14.6667V26.6667C14.6667 27.0444 14.5387 27.3613 14.2827 27.6173C14.0267 27.8733 13.7102 28.0009 13.3333 28H8.00001C7.26668 28 6.63912 27.7391 6.11734 27.2173C5.59557 26.6955 5.33423 26.0675 5.33334 25.3333Z" fill="#D2D1E3" fill-opacity="0.9"/>
</svg>
