<svg width="32" height="32" viewBox="0 0 32 32" fill="none" xmlns="http://www.w3.org/2000/svg">
<path d="M16.792 31.0107L16.776 31.0133L16.6813 31.06L16.6547 31.0653L16.636 31.06L16.5413 31.012C16.5271 31.0084 16.5164 31.0111 16.5093 31.02L16.504 31.0333L16.4813 31.604L16.488 31.6307L16.5013 31.648L16.64 31.7467L16.66 31.752L16.676 31.7467L16.8147 31.648L16.8307 31.6267L16.836 31.604L16.8133 31.0347C16.8098 31.0204 16.8027 31.0124 16.792 31.0107ZM17.144 30.86L17.1253 30.8627L16.88 30.9867L16.8667 31L16.8627 31.0147L16.8867 31.588L16.8933 31.604L16.904 31.6147L17.172 31.7373C17.1889 31.7418 17.2018 31.7382 17.2107 31.7267L17.216 31.708L17.1707 30.8893C17.1662 30.8724 17.1573 30.8627 17.144 30.86ZM16.1907 30.8627C16.1848 30.8591 16.1778 30.8579 16.171 30.8594C16.1643 30.8609 16.1585 30.8649 16.1547 30.8707L16.1467 30.8893L16.1013 31.708C16.1022 31.724 16.1098 31.7347 16.124 31.74L16.144 31.7373L16.412 31.6133L16.4253 31.6027L16.4293 31.588L16.4533 31.0147L16.4493 30.9987L16.436 30.9853L16.1907 30.8627Z" fill="#47C16B" fill-opacity="0.9"/>
<path d="M12.1427 7.264C12.94 4.93067 16.164 4.86 17.1093 7.052L17.1893 7.26533L18.2653 10.412C18.5119 11.1336 18.9104 11.794 19.4339 12.3486C19.9574 12.9031 20.5937 13.3389 21.3 13.6267L21.5893 13.7347L24.736 14.8093C27.0693 15.6067 27.14 18.8307 24.9493 19.776L24.736 19.856L21.5893 20.932C20.8674 21.1784 20.2068 21.5768 19.652 22.1003C19.0972 22.6239 18.6612 23.2603 18.3733 23.9667L18.2653 24.2547L17.1907 27.4027C16.3933 29.736 13.1693 29.8067 12.2253 27.616L12.1427 27.4027L11.068 24.256C10.8216 23.5341 10.4231 22.8735 9.89964 22.3187C9.37613 21.7639 8.73971 21.3279 8.03332 21.04L7.74532 20.932L4.59865 19.8573C2.26399 19.06 2.19332 15.836 4.38532 14.892L4.59865 14.8093L7.74532 13.7347C8.46696 13.4881 9.12733 13.0896 9.68188 12.5661C10.2364 12.0426 10.6723 11.4063 10.96 10.7L11.068 10.412L12.1427 7.264ZM14.6667 8.12533L13.592 11.272C13.2165 12.3724 12.6057 13.3777 11.802 14.218C10.9984 15.0583 10.0212 15.7132 8.93865 16.1373L8.60532 16.2587L5.45865 17.3333L8.60532 18.408C9.70572 18.7835 10.7111 19.3943 11.5513 20.198C12.3916 21.0016 13.0466 21.9787 13.4707 23.0613L13.592 23.3947L14.6667 26.5413L15.7413 23.3947C16.1168 22.2943 16.7276 21.2889 17.5313 20.4487C18.3349 19.6084 19.3121 18.9534 20.3947 18.5293L20.728 18.4093L23.8747 17.3333L20.728 16.2587C19.6276 15.8832 18.6222 15.2724 17.782 14.4687C16.9417 13.6651 16.2868 12.6879 15.8627 11.6053L15.7427 11.272L14.6667 8.12533ZM25.3333 2.66667C25.5828 2.66667 25.8272 2.73664 26.0389 2.86863C26.2505 3.00062 26.4209 3.18934 26.5307 3.41333L26.5947 3.56933L27.0613 4.93733L28.4307 5.404C28.6806 5.48893 28.8998 5.64615 29.0603 5.85575C29.2208 6.06535 29.3155 6.31789 29.3324 6.58136C29.3492 6.84483 29.2875 7.10737 29.1549 7.33572C29.0224 7.56406 28.8251 7.74792 28.588 7.864L28.4307 7.928L27.0627 8.39467L26.596 9.764C26.5109 10.0139 26.3536 10.2329 26.1439 10.3933C25.9342 10.5537 25.6816 10.6483 25.4182 10.665C25.1547 10.6817 24.8922 10.6198 24.664 10.4872C24.4357 10.3546 24.252 10.1572 24.136 9.92L24.072 9.764L23.6053 8.396L22.236 7.92933C21.986 7.84441 21.7669 7.68718 21.6063 7.47758C21.4458 7.26798 21.3511 7.01544 21.3343 6.75197C21.3174 6.4885 21.3792 6.22596 21.5117 5.99762C21.6442 5.76928 21.8415 5.58541 22.0787 5.46933L22.236 5.40533L23.604 4.93867L24.0707 3.56933C24.1606 3.3059 24.3307 3.07721 24.5571 2.91533C24.7835 2.75345 25.055 2.6665 25.3333 2.66667Z" fill="#47C16B" fill-opacity="0.9"/>
</svg>
