<svg width="30" height="22" viewBox="0 0 30 22" fill="none" xmlns="http://www.w3.org/2000/svg">
<path d="M0.266663 18.5333C0.266663 17.7556 0.466663 17.05 0.866663 16.4167C1.26666 15.7833 1.82222 15.3111 2.53333 15C4.15555 14.2889 5.61666 13.7778 6.91666 13.4667C8.21666 13.1556 9.55555 13 10.9333 13C12.3111 13 13.6444 13.1556 14.9333 13.4667C16.2222 13.7778 17.6778 14.2889 19.3 15C20.0111 15.3111 20.5722 15.7833 20.9833 16.4167C21.3944 17.05 21.6 17.7556 21.6 18.5333V19.6667C21.6 20.2167 21.4042 20.6874 21.0127 21.079C20.6209 21.4708 20.15 21.6667 19.6 21.6667H2.26666C1.71666 21.6667 1.24588 21.4708 0.854329 21.079C0.462552 20.6874 0.266663 20.2167 0.266663 19.6667V18.5333ZM27.7333 21.6667H23.1333C23.2444 21.3333 23.35 21.0056 23.45 20.6833C23.55 20.3611 23.6 20.0222 23.6 19.6667V18.5333C23.6 17.1333 23.2778 16.0056 22.6333 15.15C21.9889 14.2944 21.0222 13.5778 19.7333 13C21.2667 13.1778 22.7111 13.4222 24.0667 13.7333C25.4222 14.0444 26.5222 14.4222 27.3667 14.8667C28.1 15.2889 28.6778 15.8111 29.1 16.4333C29.5222 17.0556 29.7333 17.7556 29.7333 18.5333V19.6667C29.7333 20.2167 29.5376 20.6874 29.146 21.079C28.7542 21.4708 28.2833 21.6667 27.7333 21.6667ZM10.9333 10.9667C9.46666 10.9667 8.26666 10.5 7.33333 9.56667C6.4 8.63333 5.93333 7.43333 5.93333 5.96667C5.93333 4.5 6.4 3.3 7.33333 2.36667C8.26666 1.43333 9.46666 0.966667 10.9333 0.966667C12.4 0.966667 13.6 1.43333 14.5333 2.36667C15.4667 3.3 15.9333 4.5 15.9333 5.96667C15.9333 7.43333 15.4667 8.63333 14.5333 9.56667C13.6 10.5 12.4 10.9667 10.9333 10.9667ZM22.9333 5.96667C22.9333 7.43333 22.4667 8.63333 21.5333 9.56667C20.6 10.5 19.4 10.9667 17.9333 10.9667C17.6889 10.9667 17.4167 10.95 17.1167 10.9167C16.8167 10.8833 16.5444 10.8222 16.3 10.7333C16.8333 10.1778 17.2389 9.49445 17.5167 8.68333C17.7944 7.87222 17.9333 6.96667 17.9333 5.96667C17.9333 4.96667 17.7944 4.08333 17.5167 3.31667C17.2389 2.55 16.8333 1.84445 16.3 1.2C16.5444 1.13333 16.8167 1.07778 17.1167 1.03333C17.4167 0.988889 17.6889 0.966667 17.9333 0.966667C19.4 0.966667 20.6 1.43333 21.5333 2.36667C22.4667 3.3 22.9333 4.5 22.9333 5.96667ZM2.26666 19.6667H19.6V18.5333C19.6 18.1778 19.4944 17.8333 19.2833 17.5C19.0722 17.1667 18.8111 16.9333 18.5 16.8C16.9 16.0889 15.5556 15.6111 14.4667 15.3667C13.3778 15.1222 12.2 15 10.9333 15C9.66666 15 8.48333 15.1222 7.38333 15.3667C6.28333 15.6111 4.93333 16.0889 3.33333 16.8C3.02222 16.9333 2.76666 17.1667 2.56666 17.5C2.36666 17.8333 2.26666 18.1778 2.26666 18.5333V19.6667ZM10.9333 8.96667C11.8 8.96667 12.5167 8.68333 13.0833 8.11667C13.65 7.55 13.9333 6.83333 13.9333 5.96667C13.9333 5.1 13.65 4.38333 13.0833 3.81667C12.5167 3.25 11.8 2.96667 10.9333 2.96667C10.0667 2.96667 9.35 3.25 8.78333 3.81667C8.21666 4.38333 7.93333 5.1 7.93333 5.96667C7.93333 6.83333 8.21666 7.55 8.78333 8.11667C9.35 8.68333 10.0667 8.96667 10.9333 8.96667Z" fill="#47C16B" fill-opacity="0.9"/>
</svg>
